<?xml version="1.0" encoding="utf-8"?>
<!-- Generator: Adobe Illustrator 19.2.1, SVG Export Plug-In . SVG Version: 6.00 Build 0)  -->
<svg version="1.1" id="Capa_1" xmlns="http://www.w3.org/2000/svg" xmlns:xlink="http://www.w3.org/1999/xlink" x="0px" y="0px"
	 viewBox="0 0 487.6 487.6" style="enable-background:new 0 0 487.6 487.6;" xml:space="preserve">
<style type="text/css">
	.st0{fill:#FFFFFF;}
</style>
<g>
	<path class="st0" d="M454.6,472.6h-51.1c-1.1-32.1-10.4-57.1-27.8-74.4c-23.6-23.4-53.2-23.5-54.4-23.5h-37.6v-11.9
		c24-9.9,39.2-26.5,48.4-40.9c14.4-22.4,17.7-44,17.8-44.9c0.1-0.4,0.1-0.7,0.1-1.1v-1.6c5.3-1.3,9.9-4,13.5-8
		c10.6-11.8,10-30.3,9.2-37.7c-0.6-5.7-3.1-10.4-7.4-13.7c-4.7-3.6-10.6-4.9-15.3-5.3v-22.4V153c30.2-3.6,53.8-29.4,53.8-60.6
		c0-33.7-27.4-61.1-61.1-61.1c-4.1,0-7.5,3.4-7.5,7.5s3.4,7.5,7.5,7.5c25.4,0,46.1,20.7,46.1,46.1s-20.7,46.1-46.1,46.1
		c0,0-0.1,0-0.1,0c0,0-0.1,0-0.1,0c-4.1,0-7.5,3.4-7.5,7.5v33.8H152.6v-33.8c0-4.1-3.4-7.5-7.5-7.5c-25.4,0-46.1-20.7-46.1-46.1
		s20.7-46.1,46.1-46.1s46.1,20.7,46.1,46.1c0,4.1,3.4,7.5,7.5,7.5s7.5-3.4,7.5-7.5c0-11.4-3.1-22.1-8.6-31.2c0,0,0,0,0,0
		c0-25.4,20.7-46.1,46.1-46.1s46.1,20.7,46.1,46.1c0,4.1,3.4,7.5,7.5,7.5s7.5-3.4,7.5-7.5c0-33.7-27.4-61.1-61.1-61.1
		c-28.4,0-52.3,19.5-59.1,45.7c-10.7-9-24.4-14.5-39.4-14.5C111.4,31.2,84,58.6,84,92.3c0,31.1,23.4,56.9,53.6,60.6v34.3v22.4
		c-4.8,0.3-10.8,1.6-15.5,5.3c-4.3,3.3-6.8,8.1-7.4,13.7c-0.8,7.4-1.4,26,9.2,37.7c3.7,4.1,8.3,6.8,13.7,8.1v1.6
		c0,0.4,0,0.7,0.1,1.1c0.1,0.9,3.4,22.5,17.8,44.9c9.2,14.4,24.4,30.9,48.4,40.9v11.9h-37.5c-1.3,0-30.9,0.1-54.5,23.5
		c-17.4,17.3-26.7,42.3-27.8,74.4H33.1c-4.1,0-7.5,3.4-7.5,7.5s3.4,7.5,7.5,7.5h421.5c4.1,0,7.5-3.4,7.5-7.5
		C462.1,476,458.7,472.6,454.6,472.6z M321.3,389.8c2.7,0,64.1,1,67.1,82.9H217.7c1.9-1.2,3.1-3.4,3.1-5.8c0-3.8-3.1-7-7-7
		c-3.8,0-7,3.1-7,7c0,2.4,1.2,4.5,3.1,5.8h-31v-81.6c0-0.4,0-0.9-0.1-1.3h32.6h64.8L321.3,389.8L321.3,389.8z M356.2,226.8
		c0.7,0.6,1.5,1.4,1.7,3.4c0.9,8.7-0.1,20.2-5.5,26.2c-0.7,0.8-1.5,1.5-2.4,2v-33.6C352.3,225,354.7,225.6,356.2,226.8z
		 M135.1,256.3c-5.4-6-6.3-17.4-5.5-26.2c0.2-2,1-2.8,1.7-3.4c1.5-1.2,3.9-1.8,6.3-2.1v33.7C136.7,257.9,135.8,257.2,135.1,256.3z
		 M168.4,314.3c-11.7-18-15.3-35.8-15.8-38.9v-80.7H335v80.7c-0.5,3.1-4.1,20.9-15.8,38.9c-16.8,25.8-41.9,40-74.7,42.2h-1.4
		C210.4,354.3,185.2,340.1,168.4,314.3z M242.4,371.5c0.2,0,0.3,0,0.5,0h1.9c0.2,0,0.3,0,0.5,0c8.5-0.6,16.3-1.8,23.5-3.7v7h-49.8
		v-7C226.1,369.7,233.9,370.9,242.4,371.5z M164.1,389.9c-0.1,0.4-0.1,0.8-0.1,1.2v81.6H99.2C101.9,398.5,152.5,390.7,164.1,389.9z"
		/>
	<circle class="st0" cx="190.6" cy="227.7" r="9"/>
	<circle class="st0" cx="297.1" cy="227.7" r="9"/>
	<circle class="st0" cx="213.8" cy="442.2" r="7"/>
	<circle class="st0" cx="213.8" cy="417.5" r="7"/>
	<path class="st0" d="M241.9,276.4h3.9c9.7,0,17.6-7.7,18-17.2c0-0.3,0-0.5,0-0.8v-29.5c0-4.1-3.4-7.5-7.5-7.5s-7.5,3.4-7.5,7.5
		v29.5c0,1.7-1.3,3-3,3h-3.9c-1.7,0-3-1.3-3-3c0-4.1-3.4-7.5-7.5-7.5s-7.5,3.4-7.5,7.5C223.9,268.3,232,276.4,241.9,276.4z"/>
	<path class="st0" d="M290.3,312.7c2.6-3.2,2.1-7.9-1.1-10.5c-3.2-2.6-7.9-2.1-10.5,1.1c-0.1,0.1-9.1,9.9-33,9.9
		c-24.8,0-36.9-10.3-37.5-10.8c-3.1-2.8-7.8-2.5-10.6,0.5c-2.8,3.1-2.6,7.8,0.5,10.6c0.7,0.6,16.5,14.7,47.6,14.7
		C276.9,328.3,289,314.3,290.3,312.7z"/>
</g>
</svg>
