<?xml version="1.0" encoding="iso-8859-1"?>
<!-- Generator: Adobe Illustrator 17.1.0, SVG Export Plug-In . SVG Version: 6.00 Build 0)  -->
<!DOCTYPE svg PUBLIC "-//W3C//DTD SVG 1.1//EN" "http://www.w3.org/Graphics/SVG/1.1/DTD/svg11.dtd">
<svg version="1.1" id="Capa_1" xmlns="http://www.w3.org/2000/svg" xmlns:xlink="http://www.w3.org/1999/xlink" x="0px" y="0px"
	 viewBox="0 0 487.643 487.643" style="enable-background:new 0 0 487.643 487.643;" xml:space="preserve">
<g>
	<path d="M454.569,472.643h-51.083c-1.073-32.125-10.405-57.131-27.786-74.388c-23.588-23.419-53.218-23.434-54.407-23.474h-37.571
		v-11.933c18.114-7.506,31.19-18.777,40.495-30.027c6.645,20.017,17.487,33.462,32.34,40.038c7.304,3.233,14.81,4.438,21.948,4.438
		c20.308-0.001,37.606-9.759,38.576-10.316c3.158-1.814,4.556-5.635,3.314-9.06c-1.241-3.424-4.766-5.459-8.35-4.83
		c-0.081,0.014-8.272,1.246-14.23-5.191c-5.313-5.741-12.534-21.955-1.207-66.037c9.429-36.691,8.331-61.604-3.457-78.4
		c-8.617-12.278-22.774-19.77-43.112-22.827v-11.38c0-0.528-0.056-1.044-0.16-1.542v-14.722
		c30.386-3.494,54.064-29.361,54.064-60.669c0-33.683-27.402-61.085-61.084-61.085c-4.143,0-7.5,3.357-7.5,7.5
		c0,4.143,3.357,7.5,7.5,7.5c25.411,0,46.084,20.674,46.084,46.085s-20.673,46.085-46.084,46.085c-0.081,0-0.159,0.01-0.24,0.013
		c-0.081-0.003-0.159-0.013-0.24-0.013c-4.143,0-7.5,3.357-7.5,7.5v33.827H152.728v-33.827c0-4.143-3.357-7.5-7.5-7.5
		c-25.411,0-46.085-20.674-46.085-46.085s20.674-46.085,46.085-46.085c25.411,0,46.084,20.674,46.084,46.085
		c0,4.143,3.358,7.5,7.5,7.5c4.143,0,7.5-3.357,7.5-7.5c0-10.303-2.574-20.013-7.098-28.536c0.324-0.839,0.51-1.748,0.51-2.702
		c0-25.412,20.673-46.086,46.084-46.086c25.411,0,46.084,20.674,46.084,46.086c0,4.143,3.357,7.5,7.5,7.5s7.5-3.357,7.5-7.5
		C306.892,27.403,279.489,0,245.808,0c-28.899,0-53.158,20.181-59.469,47.185c-10.861-9.899-25.293-15.945-41.111-15.945
		c-33.683,0-61.085,27.402-61.085,61.085c0,31.142,23.43,56.896,53.585,60.607v14.999c-0.077,0.432-0.124,0.873-0.124,1.326v106.774
		c0,0.36,0.026,0.72,0.078,1.076c0.131,0.907,3.387,22.474,17.819,44.884c9.246,14.356,24.42,30.913,48.42,40.857v11.933h-37.518
		c-1.286,0.012-30.869,0.052-54.461,23.474c-17.381,17.257-26.713,42.263-27.786,74.388H33.073c-4.143,0-7.5,3.357-7.5,7.5
		c0,4.142,3.357,7.5,7.5,7.5h421.496c4.143,0,7.5-3.358,7.5-7.5C462.069,476,458.712,472.643,454.569,472.643z M321.319,389.781
		c2.68,0.001,64.122,0.994,67.148,82.861h-209.48v-81.573c0-0.44-0.046-0.869-0.118-1.288h25.822
		c3.637,18.278,19.794,32.1,39.124,32.1c19.33,0,35.489-13.821,39.126-32.1H321.319z M380.873,212.08
		c8.955,12.76,9.35,34.365,1.208,66.051c-9.989,38.873-8.399,65.775,4.726,79.957c1.021,1.103,2.072,2.088,3.143,2.968
		c-8.391,1.735-18.317,2.098-27.388-1.941c-13.17-5.864-22.313-20.086-27.174-42.271c-0.011-0.048-0.026-0.092-0.038-0.139
		c11.711-20.401,14.49-38.761,14.61-39.597c0.052-0.356,0.078-0.716,0.078-1.076v-80.207
		C364.879,198.395,375.021,203.739,380.873,212.08z M168.411,314.331c-11.735-18.011-15.267-35.843-15.808-38.913v-80.682h182.436
		v80.691c-0.529,3.06-3.936,20.471-15.509,38.441c-16.804,26.092-42.038,40.435-75.012,42.631h-1.395
		C210.357,354.315,185.22,340.129,168.411,314.331z M242.393,371.484c0.162,0.011,0.323,0.016,0.485,0.016h1.887
		c0.162,0,0.323-0.005,0.485-0.016c8.499-0.551,16.298-1.832,23.472-3.668v13.973c-0.002,0.064-0.01,0.128-0.01,0.193
		c0,13.73-11.169,24.898-24.897,24.898c-13.727,0-24.895-11.169-24.895-24.898v-14.166
		C226.095,369.652,233.894,370.934,242.393,371.484z M164.091,389.877c-0.063,0.389-0.104,0.785-0.104,1.192v81.573H99.176
		C101.914,398.541,152.508,390.696,164.091,389.877z"/>
	<circle cx="190.584" cy="227.69" r="8.952"/>
	<circle cx="297.058" cy="227.691" r="8.952"/>
	<circle cx="206.795" cy="430.165" r="6.955"/>
	<circle cx="206.795" cy="454.848" r="6.955"/>
	<path d="M242.521,273.52h2.6c8.026,0,14.556-6.529,14.556-14.556c0-4.143-3.357-7.5-7.5-7.5c-3.993,0-7.257,3.12-7.487,7.056
		h-1.736c-0.23-3.936-3.494-7.056-7.487-7.056c-4.143,0-7.5,3.357-7.5,7.5C227.966,266.99,234.495,273.52,242.521,273.52z"/>
	<path d="M290.315,302.724c2.601-3.224,2.095-7.945-1.13-10.546c-3.225-2.601-7.947-2.096-10.546,1.13
		c-0.08,0.099-9.089,9.939-32.971,9.939c-24.794,0-36.889-10.282-37.493-10.811c-3.061-2.752-7.775-2.521-10.553,0.527
		c-2.791,3.061-2.572,7.805,0.489,10.595c0.657,0.6,16.468,14.689,47.557,14.689C276.895,318.246,289.034,304.313,290.315,302.724z"
		/>
</g>
<g>
</g>
<g>
</g>
<g>
</g>
<g>
</g>
<g>
</g>
<g>
</g>
<g>
</g>
<g>
</g>
<g>
</g>
<g>
</g>
<g>
</g>
<g>
</g>
<g>
</g>
<g>
</g>
<g>
</g>
</svg>
