<?xml version="1.0" encoding="utf-8"?>
<!-- Generator: Adobe Illustrator 19.2.1, SVG Export Plug-In . SVG Version: 6.00 Build 0)  -->
<svg version="1.1" id="Capa_1" xmlns="http://www.w3.org/2000/svg" xmlns:xlink="http://www.w3.org/1999/xlink" x="0px" y="0px"
	 viewBox="0 0 487.6 487.6" style="enable-background:new 0 0 487.6 487.6;" xml:space="preserve">
<style type="text/css">
	.st0{fill:#FFFFFF;}
</style>
<g>
	<path class="st0" d="M454.6,472.6h-51.1c-1.1-32.1-10.4-57.1-27.8-74.4c-23.6-23.4-53.2-23.4-54.4-23.5h-37.6v-11.9
		c18.1-7.5,31.2-18.8,40.5-30c6.6,20,17.5,33.5,32.3,40c7.3,3.2,14.8,4.4,21.9,4.4c20.3,0,37.6-9.8,38.6-10.3
		c3.2-1.8,4.6-5.6,3.3-9.1c-1.2-3.4-4.8-5.5-8.4-4.8c-0.1,0-8.3,1.2-14.2-5.2c-5.3-5.7-12.5-22-1.2-66c9.4-36.7,8.3-61.6-3.5-78.4
		c-8.6-12.3-22.8-19.8-43.1-22.8v-11.4c0-0.5-0.1-1-0.2-1.5V153c30.4-3.5,54.1-29.4,54.1-60.7c0-33.7-27.4-61.1-61.1-61.1
		c-4.1,0-7.5,3.4-7.5,7.5s3.4,7.5,7.5,7.5c25.4,0,46.1,20.7,46.1,46.1s-20.7,46.1-46.1,46.1c-0.1,0-0.2,0-0.2,0c-0.1,0-0.2,0-0.2,0
		c-4.1,0-7.5,3.4-7.5,7.5v33.8H152.7v-33.8c0-4.1-3.4-7.5-7.5-7.5c-25.4,0-46.1-20.7-46.1-46.1s20.7-46.1,46.1-46.1
		s46.1,20.7,46.1,46.1c0,4.1,3.4,7.5,7.5,7.5c4.1,0,7.5-3.4,7.5-7.5c0-10.3-2.6-20-7.1-28.5c0.3-0.8,0.5-1.7,0.5-2.7
		c0-25.4,20.7-46.1,46.1-46.1s46.1,20.7,46.1,46.1c0,4.1,3.4,7.5,7.5,7.5s7.5-3.4,7.5-7.5c0-33.7-27.4-61.1-61.1-61.1
		c-28.9,0-53.2,20.2-59.5,47.2c-10.9-9.9-25.3-15.9-41.1-15.9c-33.7,0-61.1,27.4-61.1,61.1c0,31.1,23.4,56.9,53.6,60.6v15
		c-0.1,0.4-0.1,0.9-0.1,1.3V276c0,0.4,0,0.7,0.1,1.1c0.1,0.9,3.4,22.5,17.8,44.9c9.2,14.4,24.4,30.9,48.4,40.9v11.9h-37.5
		c-1.3,0-30.9,0.1-54.5,23.5c-17.4,17.3-26.7,42.3-27.8,74.4H33.1c-4.1,0-7.5,3.4-7.5,7.5c0,4.1,3.4,7.5,7.5,7.5h421.5
		c4.1,0,7.5-3.4,7.5-7.5C462.1,476,458.7,472.6,454.6,472.6z M321.3,389.8c2.7,0,64.1,1,67.1,82.9H179v-81.6c0-0.4,0-0.9-0.1-1.3
		h25.8c3.6,18.3,19.8,32.1,39.1,32.1s35.5-13.8,39.1-32.1H321.3z M380.9,212.1c9,12.8,9.4,34.4,1.2,66.1c-10,38.9-8.4,65.8,4.7,80
		c1,1.1,2.1,2.1,3.1,3c-8.4,1.7-18.3,2.1-27.4-1.9c-13.2-5.9-22.3-20.1-27.2-42.3c0,0,0-0.1,0-0.1c11.7-20.4,14.5-38.8,14.6-39.6
		c0.1-0.4,0.1-0.7,0.1-1.1v-80.2C364.9,198.4,375,203.7,380.9,212.1z M168.4,314.3c-11.7-18-15.3-35.8-15.8-38.9v-80.7H335v80.7
		c-0.5,3.1-3.9,20.5-15.5,38.4c-16.8,26.1-42,40.4-75,42.6h-1.4C210.4,354.3,185.2,340.1,168.4,314.3z M242.4,371.5
		c0.2,0,0.3,0,0.5,0h1.9c0.2,0,0.3,0,0.5,0c8.5-0.6,16.3-1.8,23.5-3.7v14c0,0.1,0,0.1,0,0.2c0,13.7-11.2,24.9-24.9,24.9
		c-13.7,0-24.9-11.2-24.9-24.9v-14.2C226.1,369.7,233.9,370.9,242.4,371.5z M164.1,389.9c-0.1,0.4-0.1,0.8-0.1,1.2v81.6H99.2
		C101.9,398.5,152.5,390.7,164.1,389.9z"/>
	<circle class="st0" cx="190.6" cy="227.7" r="9"/>
	<circle class="st0" cx="297.1" cy="227.7" r="9"/>
	<circle class="st0" cx="206.8" cy="430.2" r="7"/>
	<circle class="st0" cx="206.8" cy="454.8" r="7"/>
	<path class="st0" d="M242.5,273.5h2.6c8,0,14.6-6.5,14.6-14.6c0-4.1-3.4-7.5-7.5-7.5c-4,0-7.3,3.1-7.5,7.1H243
		c-0.2-3.9-3.5-7.1-7.5-7.1c-4.1,0-7.5,3.4-7.5,7.5C228,267,234.5,273.5,242.5,273.5z"/>
	<path class="st0" d="M290.3,302.7c2.6-3.2,2.1-7.9-1.1-10.5c-3.2-2.6-7.9-2.1-10.5,1.1c-0.1,0.1-9.1,9.9-33,9.9
		c-24.8,0-36.9-10.3-37.5-10.8c-3.1-2.8-7.8-2.5-10.6,0.5c-2.8,3.1-2.6,7.8,0.5,10.6c0.7,0.6,16.5,14.7,47.6,14.7
		C276.9,318.2,289,304.3,290.3,302.7z"/>
</g>
</svg>
